<svg width="26" height="26" viewBox="0 0 26 26" fill="none" xmlns="http://www.w3.org/2000/svg">
<rect x="0.5" y="0.5" width="25" height="25" rx="12.5" fill="#CFF3AD" stroke="#CFF3AD"/>
<path fill-rule="evenodd" clip-rule="evenodd" d="M16.5547 8.03505C15.1761 8.22592 13.9499 9.30303 13.3413 9.92811L12.8559 10.4255L11.6951 9.20506C10.9522 8.42953 9.96598 8.00095 8.91788 8.00095C7.86987 8.00095 6.88511 8.42951 6.14414 9.20506C4.61862 10.8072 4.61862 13.4141 6.14414 15.0156L7.97135 16.9337L12.1202 21.1952C12.2748 21.3549 12.487 21.4421 12.7211 21.4421C13.0028 21.4421 13.2895 21.3151 13.5038 21.0931C13.7287 20.8603 13.8401 20.5644 13.838 20.2827C13.9231 20.3097 14.0104 20.326 14.1033 20.326C14.385 20.326 14.6717 20.199 14.886 19.9769C15.1109 19.7442 15.2223 19.4483 15.2223 19.1666C15.306 19.1936 15.3933 19.2099 15.4856 19.2099C15.7673 19.2099 16.0539 19.0829 16.2703 18.8608C16.4939 18.6302 16.6045 18.3322 16.6045 18.0526C16.6883 18.0782 16.7755 18.0959 16.8678 18.0959C17.1495 18.0959 17.4361 17.9668 17.6526 17.7454C17.8668 17.5254 17.9903 17.2331 17.9924 16.9464C17.9942 16.9447 17.9965 16.9432 17.9988 16.9418C18.0011 16.9404 18.0034 16.939 18.0052 16.9372C18.0052 16.9372 18.018 16.9244 18.0215 16.923L19.8068 15.0504C20.5682 14.2514 20.9854 13.207 20.9854 12.1079C20.9854 11.0087 20.5788 9.98277 19.8394 9.20366C18.9837 8.30821 17.7541 7.87041 16.5535 8.0336L16.5547 8.03505ZM17.4012 17.4914C17.138 17.7603 16.7293 17.8093 16.52 17.595L14.0876 15.0952C14.0187 15.0243 13.9059 15.0243 13.835 15.0952C13.7661 15.1662 13.7661 15.2804 13.835 15.3514L16.1183 17.6986C16.2112 17.7929 16.2545 17.9199 16.2545 18.0583C16.2545 18.2435 16.1729 18.4472 16.0182 18.6068C15.8678 18.7615 15.6734 18.8481 15.4861 18.8481C15.3881 18.8481 15.2498 18.8246 15.137 18.7097L12.7032 16.2084C12.6344 16.1375 12.5216 16.1375 12.4527 16.2084C12.3839 16.2794 12.3839 16.3936 12.4527 16.4646L14.7375 18.8133C14.8305 18.9076 14.8738 19.0346 14.8738 19.173C14.8738 19.3582 14.7922 19.5619 14.6375 19.7215C14.4871 19.8762 14.2927 19.9627 14.1053 19.9627C14.0074 19.9627 13.8691 19.9393 13.7562 19.8244L13.6072 19.6718L11.3224 17.3231C11.2536 17.2522 11.1408 17.2522 11.0719 17.3231C11.0031 17.3941 11.001 17.5083 11.0719 17.5793L13.3568 19.928C13.5732 20.1494 13.5278 20.5566 13.2567 20.8362C13.1063 20.9888 12.9119 21.0775 12.7245 21.0775C12.6266 21.0775 12.4868 21.0541 12.374 20.9377L8.22886 16.6782L6.40317 14.7617C5.00819 13.2993 5.00819 10.9202 6.40317 9.4578C7.07512 8.75107 7.97062 8.36224 8.92063 8.36224C9.87064 8.36224 10.7683 8.75109 11.4417 9.4578L12.6082 10.6818L9.93107 13.4334C9.78206 13.586 9.75652 13.8258 9.86934 14.0039C10.1035 14.3814 10.4632 14.6233 10.879 14.6851C11.2934 14.7468 11.7163 14.6198 12.0363 14.336C12.2563 14.1437 12.621 13.7932 12.9864 13.4221C13.0226 13.3859 13.068 13.3639 13.1134 13.3603C13.4767 13.3383 13.8563 13.371 14.2196 13.4036C14.2566 13.4067 14.2939 13.4095 14.3313 13.4124L14.3314 13.4124L14.4282 13.4199L17.502 16.5824C17.6162 16.6966 17.6382 16.8407 17.6382 16.9422C17.6382 17.1344 17.5531 17.3345 17.4019 17.4892L17.4012 17.4914ZM17.8952 16.5362L19.5498 14.7979L19.552 14.7985C20.2495 14.0683 20.6327 13.1091 20.6327 12.11C20.6327 11.111 20.2616 10.1701 19.5861 9.4598C18.8083 8.64452 17.6915 8.24646 16.6016 8.39547C15.3265 8.57212 14.1699 9.5911 13.5937 10.185L10.1786 13.6924C10.1481 13.7236 10.141 13.7762 10.1644 13.8123C10.3446 14.0976 10.6171 14.2807 10.9293 14.3282C11.2415 14.3757 11.5594 14.2792 11.8028 14.0649C12.0156 13.8755 12.3718 13.5328 12.733 13.1673C12.8309 13.0694 12.9579 13.0091 13.0906 13.002C13.4773 12.9768 13.8618 13.0102 14.2328 13.0424L14.2493 13.0439C14.6956 13.0836 15.1171 13.1205 15.5443 13.0694C16.2106 12.9914 16.7463 12.6132 17.2387 12.2336C17.3168 12.1718 17.4296 12.1882 17.4878 12.2683C17.546 12.3478 17.5296 12.4627 17.4516 12.5223C16.9195 12.9332 16.3377 13.3419 15.5841 13.4306C15.3755 13.4561 15.1648 13.4597 14.9576 13.454L17.7533 16.3276C17.8114 16.3894 17.8569 16.4596 17.8952 16.5362Z" fill="black"/>
<path d="M13.3413 9.92811L13.5202 10.1027L13.5204 10.1025L13.3413 9.92811ZM16.5547 8.03505L16.589 8.28269L17.0495 8.21894L16.7424 7.86993L16.5547 8.03505ZM12.8559 10.4255L12.6748 10.5978L12.8536 10.7858L13.0349 10.6001L12.8559 10.4255ZM11.6951 9.20506L11.8762 9.03276L11.8756 9.03213L11.6951 9.20506ZM6.14414 9.20506L5.96338 9.03236L5.96309 9.03267L6.14414 9.20506ZM6.14414 15.0156L5.96312 15.1881L5.96313 15.1881L6.14414 15.0156ZM7.97135 16.9337L7.79033 17.1061L7.79222 17.108L7.97135 16.9337ZM12.1202 21.1952L12.2997 21.0213L12.2993 21.0208L12.1202 21.1952ZM13.5038 21.0931L13.324 20.9193L13.3239 20.9195L13.5038 21.0931ZM13.838 20.2827L13.9134 20.0444L13.5854 19.9405L13.588 20.2846L13.838 20.2827ZM14.886 19.9769L14.7062 19.8032L14.7061 19.8033L14.886 19.9769ZM15.2223 19.1666L15.299 18.9287L14.9723 18.8235V19.1666H15.2223ZM16.2703 18.8608L16.4494 19.0353L16.4499 19.0348L16.2703 18.8608ZM16.6045 18.0526L16.6775 17.8135L16.3545 17.715V18.0526H16.6045ZM17.6526 17.7454L17.8313 17.9202L17.8316 17.9198L17.6526 17.7454ZM17.9924 16.9464L17.8157 16.7697L17.7432 16.8421L17.7424 16.9446L17.9924 16.9464ZM18.0215 16.923L18.1144 17.1551L18.1649 17.1349L18.2025 17.0955L18.0215 16.923ZM19.8068 15.0504L19.9878 15.2229L19.9878 15.2229L19.8068 15.0504ZM19.8394 9.20366L20.0208 9.03157L20.0202 9.03094L19.8394 9.20366ZM16.5535 8.0336L16.5198 7.78588L16.0578 7.84867L16.3658 8.19873L16.5535 8.0336ZM16.52 17.595L16.3408 17.7693L16.3411 17.7697L16.52 17.595ZM17.4012 17.4914L17.5799 17.6663L17.6211 17.6242L17.6391 17.5682L17.4012 17.4914ZM14.0876 15.0952L13.9081 15.2693L13.9084 15.2696L14.0876 15.0952ZM13.835 15.0952L13.6582 14.9184L13.6555 14.9212L13.835 15.0952ZM13.835 15.3514L13.6555 15.5254L13.6558 15.5257L13.835 15.3514ZM16.1183 17.6986L15.9391 17.8729L15.9401 17.874L16.1183 17.6986ZM16.0182 18.6068L16.1974 18.7811L16.1978 18.7808L16.0182 18.6068ZM15.137 18.7097L14.9578 18.884L14.9585 18.8848L15.137 18.7097ZM12.7032 16.2084L12.5238 16.3825L12.524 16.3828L12.7032 16.2084ZM12.4527 16.4646L12.2733 16.6386L12.2735 16.6389L12.4527 16.4646ZM14.7375 18.8133L14.5583 18.9876L14.5594 18.9887L14.7375 18.8133ZM14.6375 19.7215L14.8167 19.8958L14.817 19.8955L14.6375 19.7215ZM13.7562 19.8244L13.5774 19.9991L13.5778 19.9995L13.7562 19.8244ZM13.6072 19.6718L13.428 19.8462L13.4284 19.8465L13.6072 19.6718ZM11.3224 17.3231L11.143 17.4972L11.1432 17.4975L11.3224 17.3231ZM11.0719 17.5793L11.2512 17.405L11.2487 17.4025L11.0719 17.5793ZM13.3568 19.928L13.1776 20.1023L13.178 20.1027L13.3568 19.928ZM13.2567 20.8362L13.4347 21.0117L13.4362 21.0102L13.2567 20.8362ZM12.374 20.9377L12.5535 20.7637L12.5532 20.7633L12.374 20.9377ZM8.22886 16.6782L8.04784 16.8507L8.0497 16.8526L8.22886 16.6782ZM6.40317 14.7617L6.58418 14.5893L6.58406 14.5892L6.40317 14.7617ZM6.40317 9.4578L6.58407 9.63036L6.58435 9.63006L6.40317 9.4578ZM11.4417 9.4578L11.2607 9.63027L11.2608 9.63027L11.4417 9.4578ZM12.6082 10.6818L12.7874 10.8561L12.9553 10.6836L12.7892 10.5093L12.6082 10.6818ZM9.93107 13.4334L10.1099 13.6081L10.1103 13.6077L9.93107 13.4334ZM9.86934 14.0039L10.0818 13.8721L10.0805 13.8701L9.86934 14.0039ZM10.879 14.6851L10.9159 14.4378L10.9157 14.4378L10.879 14.6851ZM12.0363 14.336L11.8718 14.1478L11.8704 14.1489L12.0363 14.336ZM12.9864 13.4221L12.8096 13.2453L12.8083 13.2467L12.9864 13.4221ZM13.1134 13.3603L13.0983 13.1108L13.094 13.1111L13.1134 13.3603ZM14.2196 13.4036L14.1973 13.6526L14.1991 13.6528L14.2196 13.4036ZM14.3313 13.4124L14.3122 13.6617L14.3143 13.6618L14.3313 13.4124ZM14.3314 13.4124L14.3508 13.1631L14.3484 13.163L14.3314 13.4124ZM14.4282 13.4199L14.6075 13.2457L14.5417 13.178L14.4477 13.1707L14.4282 13.4199ZM17.502 16.5824L17.3227 16.7567L17.3252 16.7592L17.502 16.5824ZM17.4019 17.4892L17.2231 17.3145L17.1821 17.3565L17.164 17.4124L17.4019 17.4892ZM19.5498 14.7979L19.6196 14.5578L19.4736 14.5154L19.3687 14.6255L19.5498 14.7979ZM17.8952 16.5362L17.6716 16.648L17.8308 16.9665L18.0763 16.7086L17.8952 16.5362ZM19.552 14.7985L19.4822 15.0386L19.628 15.081L19.7328 14.9712L19.552 14.7985ZM19.5861 9.4598L19.7672 9.28751L19.767 9.28723L19.5861 9.4598ZM16.6016 8.39547L16.5678 8.14777L16.5673 8.14784L16.6016 8.39547ZM13.5937 10.185L13.7728 10.3594L13.7731 10.3591L13.5937 10.185ZM10.1786 13.6924L10.3574 13.8672L10.3577 13.8668L10.1786 13.6924ZM10.1644 13.8123L10.3758 13.6788L10.3743 13.6765L10.1644 13.8123ZM11.8028 14.0649L11.968 14.2526L11.969 14.2517L11.8028 14.0649ZM12.733 13.1673L12.5562 12.9906L12.5552 12.9916L12.733 13.1673ZM13.0906 13.002L13.104 13.2517L13.1069 13.2515L13.0906 13.002ZM14.2328 13.0424L14.2112 13.2915L14.2112 13.2915L14.2328 13.0424ZM14.2493 13.0439L14.2715 12.7949L14.2709 12.7948L14.2493 13.0439ZM15.5443 13.0694L15.5152 12.8211L15.5146 12.8212L15.5443 13.0694ZM17.2387 12.2336L17.3914 12.4316L17.3938 12.4296L17.2387 12.2336ZM17.4878 12.2683L17.2854 12.4152L17.2861 12.416L17.4878 12.2683ZM17.4516 12.5223L17.2999 12.3237L17.2988 12.3245L17.4516 12.5223ZM15.5841 13.4306L15.5549 13.1823L15.5537 13.1824L15.5841 13.4306ZM14.9576 13.454L14.9644 13.2041L14.3493 13.1872L14.7784 13.6283L14.9576 13.454ZM17.7533 16.3276L17.9352 16.1561L17.9324 16.1533L17.7533 16.3276ZM13.5204 10.1025C14.1253 9.48125 15.3002 8.46111 16.589 8.28269L16.5205 7.78741C15.0519 7.99072 13.7745 9.12481 13.1622 9.7537L13.5204 10.1025ZM13.0349 10.6001L13.5202 10.1027L13.1623 9.75351L12.677 10.2509L13.0349 10.6001ZM11.514 9.37736L12.6748 10.5978L13.0371 10.2532L11.8762 9.03277L11.514 9.37736ZM8.91788 8.25095C9.89569 8.25095 10.8173 8.65014 11.5146 9.378L11.8756 9.03213C11.0871 8.20891 10.0363 7.75095 8.91788 7.75095V8.25095ZM6.32491 9.37776C7.02014 8.65008 7.94021 8.25095 8.91788 8.25095V7.75095C7.79954 7.75095 6.75008 8.20894 5.96338 9.03236L6.32491 9.37776ZM6.32516 14.8432C4.89163 13.3383 4.89158 10.8831 6.3252 9.37746L5.96309 9.03267C4.34565 10.7313 4.34561 13.49 5.96312 15.1881L6.32516 14.8432ZM8.15236 16.7612L6.32515 14.8432L5.96313 15.1881L7.79034 17.1061L8.15236 16.7612ZM12.2993 21.0208L8.15048 16.7593L7.79222 17.108L11.941 21.3696L12.2993 21.0208ZM12.7211 21.1921C12.5508 21.1921 12.4046 21.1296 12.2997 21.0213L11.9406 21.3692C12.145 21.5802 12.4232 21.6921 12.7211 21.6921V21.1921ZM13.3239 20.9195C13.1523 21.0973 12.9289 21.1921 12.7211 21.1921V21.6921C13.0768 21.6921 13.4267 21.533 13.6837 21.2666L13.3239 20.9195ZM13.588 20.2846C13.5896 20.4999 13.5041 20.733 13.324 20.9193L13.6835 21.2668C13.9533 20.9876 14.0906 20.6289 14.088 20.2808L13.588 20.2846ZM14.1033 20.076C14.0406 20.076 13.9789 20.0651 13.9134 20.0444L13.7625 20.5211C13.8673 20.5543 13.9803 20.576 14.1033 20.576V20.076ZM14.7061 19.8033C14.5345 19.9812 14.3111 20.076 14.1033 20.076V20.576C14.459 20.576 14.8089 20.4168 15.0659 20.1505L14.7061 19.8033ZM14.9723 19.1666C14.9723 19.3833 14.8862 19.617 14.7062 19.8032L15.0658 20.1507C15.3356 19.8714 15.4723 19.5133 15.4723 19.1666H14.9723ZM15.4856 18.9599C15.4234 18.9599 15.3621 18.949 15.299 18.9287L15.1457 19.4046C15.2499 19.4382 15.3632 19.4599 15.4856 19.4599V18.9599ZM16.0913 18.6863C15.917 18.8652 15.6931 18.9599 15.4856 18.9599V19.4599C15.8414 19.4599 16.1908 19.3006 16.4494 19.0353L16.0913 18.6863ZM16.3545 18.0526C16.3545 18.2681 16.2685 18.5035 16.0908 18.6868L16.4499 19.0348C16.7192 18.7569 16.8545 18.3962 16.8545 18.0526H16.3545ZM16.8678 17.8459C16.8078 17.8459 16.746 17.8344 16.6775 17.8135L16.5316 18.2917C16.6305 18.3219 16.7433 18.3459 16.8678 18.3459V17.8459ZM17.4738 17.5706C17.2986 17.7499 17.0743 17.8459 16.8678 17.8459V18.3459C17.2247 18.3459 17.5737 18.1837 17.8313 17.9202L17.4738 17.5706ZM17.7424 16.9446C17.7408 17.1626 17.6457 17.3942 17.4735 17.5709L17.8316 17.9198C18.088 17.6567 18.2398 17.3036 18.2424 16.9483L17.7424 16.9446ZM17.8678 16.7289C17.8677 16.729 17.8606 16.7333 17.8529 16.7386C17.8448 16.7442 17.8308 16.7545 17.8157 16.7697L18.1692 17.1232C18.1559 17.1366 18.1439 17.1452 18.138 17.1494C18.1324 17.1532 18.1276 17.1561 18.1298 17.1547L17.8678 16.7289ZM17.8284 16.7604C17.8418 16.7471 17.8537 16.7384 17.8597 16.7343C17.8652 16.7304 17.87 16.7276 17.8678 16.7289L18.1298 17.1547C18.13 17.1547 18.1371 17.1504 18.1448 17.145C18.1529 17.1394 18.1669 17.1291 18.182 17.114L17.8284 16.7604ZM17.9287 16.6909C17.9 16.7024 17.8798 16.7168 17.8759 16.7196C17.8681 16.7251 17.862 16.73 17.8586 16.7329C17.8514 16.7387 17.8454 16.7442 17.8421 16.7473C17.8383 16.7508 17.8351 16.7539 17.8329 16.7561C17.8317 16.7572 17.8308 16.7581 17.83 16.7588C17.8297 16.7592 17.8293 16.7595 17.8291 16.7598C17.8289 16.7599 17.8288 16.7601 17.8287 16.7602C17.8287 16.7602 17.8286 16.7603 17.8286 16.7603C17.8285 16.7603 17.8285 16.7604 17.8285 16.7604C17.8285 16.7604 17.8285 16.7604 17.8285 16.7604C17.8285 16.7604 17.8285 16.7604 17.8284 16.7604C17.8284 16.7604 17.8284 16.7604 18.0052 16.9372C18.182 17.114 18.182 17.114 18.182 17.114C18.182 17.114 18.182 17.114 18.182 17.114C18.182 17.114 18.1819 17.114 18.1819 17.114C18.1819 17.1141 18.1819 17.1141 18.1819 17.1141C18.1818 17.1141 18.1818 17.1142 18.1818 17.1142C18.1817 17.1142 18.1817 17.1143 18.1816 17.1143C18.1816 17.1144 18.1815 17.1145 18.1815 17.1145C18.1815 17.1145 18.1815 17.1144 18.1816 17.1143C18.182 17.114 18.1821 17.1139 18.182 17.114C18.1819 17.1141 18.1814 17.1145 18.1807 17.1151C18.1801 17.1157 18.1786 17.117 18.1764 17.1188C18.1746 17.1203 18.1701 17.124 18.1638 17.1284C18.1612 17.1303 18.1422 17.144 18.1144 17.1551L17.9287 16.6909ZM19.6259 14.8779L17.8406 16.7505L18.2025 17.0955L19.9878 15.2229L19.6259 14.8779ZM20.7354 12.1079C20.7354 13.1427 20.3429 14.1254 19.6258 14.8779L19.9878 15.2229C20.7934 14.3774 21.2354 13.2712 21.2354 12.1079H20.7354ZM19.6581 9.37575C20.3525 10.1075 20.7354 11.0715 20.7354 12.1079H21.2354C21.2354 10.9459 20.8051 9.85802 20.0208 9.03157L19.6581 9.37575ZM16.5871 8.28133C17.7064 8.1292 18.8569 8.53731 19.6587 9.37638L20.0202 9.03094C19.1106 8.0791 17.8019 7.61162 16.5198 7.78588L16.5871 8.28133ZM16.7424 7.86993L16.7412 7.86848L16.3658 8.19873L16.367 8.20018L16.7424 7.86993ZM16.3411 17.7697C16.5126 17.9452 16.7512 17.9985 16.9697 17.9727C17.1892 17.9467 17.4094 17.8404 17.5799 17.6663L17.2226 17.3165C17.1298 17.4113 17.0141 17.4639 16.911 17.4761C16.807 17.4884 16.7367 17.4591 16.6988 17.4203L16.3411 17.7697ZM13.9084 15.2696L16.3408 17.7693L16.6991 17.4206L14.2668 14.9209L13.9084 15.2696ZM14.0117 15.272C13.9866 15.2972 13.939 15.3011 13.9081 15.2693L14.267 14.9212C14.0985 14.7475 13.8253 14.7514 13.6582 14.9185L14.0117 15.272ZM14.0144 15.1773C14.0396 15.2033 14.0397 15.2433 14.0144 15.2693L13.6555 14.9212C13.4926 15.0891 13.4926 15.3575 13.6555 15.5254L14.0144 15.1773ZM16.2975 17.5242L14.0142 15.1771L13.6558 15.5257L15.9391 17.8729L16.2975 17.5242ZM16.5045 18.0583C16.5045 17.8677 16.444 17.673 16.2964 17.5231L15.9401 17.874C15.9784 17.9129 16.0045 17.9722 16.0045 18.0583H16.5045ZM16.1978 18.7808C16.3938 18.5784 16.5045 18.3138 16.5045 18.0583H16.0045C16.0045 18.1733 15.952 18.3159 15.8387 18.4328L16.1978 18.7808ZM15.4861 19.0981C15.7494 19.0981 16.0062 18.9777 16.1974 18.7811L15.839 18.4325C15.7294 18.5452 15.5974 18.5981 15.4861 18.5981V19.0981ZM14.9585 18.8848C15.136 19.0657 15.3513 19.0981 15.4861 19.0981V18.5981C15.4249 18.5981 15.3635 18.5836 15.3154 18.5346L14.9585 18.8848ZM12.524 16.3828L14.9578 18.884L15.3161 18.5353L12.8824 16.0341L12.524 16.3828ZM12.6322 16.3825C12.6028 16.4128 12.5531 16.4128 12.5238 16.3825L12.8827 16.0344C12.7156 15.8622 12.4403 15.8622 12.2733 16.0344L12.6322 16.3825ZM12.6322 16.2905C12.6574 16.3165 12.6574 16.3565 12.6322 16.3825L12.2733 16.0344C12.1104 16.2023 12.1104 16.4707 12.2733 16.6386L12.6322 16.2905ZM14.9167 18.6389L12.6319 16.2902L12.2735 16.6389L14.5583 18.9876L14.9167 18.6389ZM15.1238 19.173C15.1238 18.9824 15.0633 18.7877 14.9156 18.6378L14.5594 18.9887C14.5977 19.0276 14.6238 19.0869 14.6238 19.173H15.1238ZM14.817 19.8955C15.0131 19.6931 15.1238 19.4284 15.1238 19.173H14.6238C14.6238 19.2879 14.5713 19.4306 14.458 19.5475L14.817 19.8955ZM14.1053 20.2127C14.3687 20.2127 14.6255 20.0924 14.8167 19.8958L14.4583 19.5472C14.3486 19.6599 14.2166 19.7127 14.1053 19.7127V20.2127ZM13.5778 19.9995C13.7553 20.1804 13.9706 20.2127 14.1053 20.2127V19.7127C14.0442 19.7127 13.9828 19.6983 13.9347 19.6493L13.5778 19.9995ZM13.4284 19.8465L13.5774 19.9991L13.9351 19.6497L13.7861 19.4971L13.4284 19.8465ZM11.1432 17.4975L13.428 19.8462L13.7864 19.4975L11.5016 17.1488L11.1432 17.4975ZM11.2514 17.4972C11.222 17.5275 11.1724 17.5275 11.143 17.4972L11.5019 17.1491C11.3348 16.9769 11.0595 16.9769 10.8925 17.1491L11.2514 17.4972ZM11.2487 17.4025C11.2787 17.4325 11.2733 17.4746 11.2514 17.4972L10.8925 17.1491C10.7329 17.3136 10.7233 17.5841 10.8952 17.7561L11.2487 17.4025ZM13.536 19.7537L11.2511 17.405L10.8928 17.7536L13.1776 20.1023L13.536 19.7537ZM13.4362 21.0102C13.7632 20.673 13.8809 20.1066 13.5355 19.7532L13.178 20.1027C13.2654 20.1922 13.2923 20.4403 13.0772 20.6622L13.4362 21.0102ZM12.7245 21.3275C12.9893 21.3275 13.2452 21.2039 13.4347 21.0117L13.0787 20.6607C12.9673 20.7736 12.8345 20.8275 12.7245 20.8275V21.3275ZM12.1945 21.1117C12.3725 21.2953 12.5903 21.3275 12.7245 21.3275V20.8275C12.663 20.8275 12.6012 20.8128 12.5535 20.7637L12.1945 21.1117ZM8.0497 16.8526L12.1949 21.112L12.5532 20.7633L8.40803 16.5039L8.0497 16.8526ZM6.22215 14.9342L8.04785 16.8507L8.40988 16.5058L6.58418 14.5893L6.22215 14.9342ZM6.22227 9.28524C4.73515 10.8442 4.73515 13.3753 6.22227 14.9343L6.58406 14.5892C5.28122 13.2234 5.28122 10.9962 6.58407 9.63036L6.22227 9.28524ZM8.92063 8.11224C7.90035 8.11224 6.9399 8.53048 6.22199 9.28553L6.58435 9.63006C7.21035 8.97167 8.0409 8.61224 8.92063 8.61224V8.11224ZM11.6227 9.28533C10.9033 8.5304 9.9408 8.11224 8.92063 8.11224V8.61224C9.80049 8.61224 10.6332 8.97178 11.2607 9.63027L11.6227 9.28533ZM12.7892 10.5093L11.6227 9.28532L11.2608 9.63027L12.4273 10.8543L12.7892 10.5093ZM10.1103 13.6077L12.7874 10.8561L12.429 10.5074L9.75188 13.2591L10.1103 13.6077ZM10.0805 13.8701C10.0304 13.7909 10.041 13.6786 10.1099 13.6081L9.75223 13.2587C9.52308 13.4933 9.48269 13.8607 9.65814 14.1377L10.0805 13.8701ZM10.9157 14.4378C10.5768 14.3875 10.2795 14.1908 10.0818 13.8721L9.65689 14.1357C9.92751 14.572 10.3496 14.8592 10.8423 14.9324L10.9157 14.4378ZM11.8704 14.1489C11.6047 14.3846 11.2557 14.4884 10.9159 14.4378L10.8422 14.9323C11.3311 15.0052 11.8279 14.855 12.2022 14.523L11.8704 14.1489ZM12.8083 13.2467C12.4445 13.6161 12.0848 13.9615 11.8718 14.1478L12.2009 14.5242C12.4277 14.3259 12.7974 13.9703 13.1646 13.5975L12.8083 13.2467ZM13.094 13.1111C12.9821 13.1198 12.8827 13.1722 12.8096 13.2453L13.1632 13.5989C13.1623 13.5997 13.1601 13.6017 13.1557 13.6039C13.1513 13.606 13.1437 13.6087 13.1329 13.6096L13.094 13.1111ZM14.242 13.1546C13.8813 13.1222 13.4833 13.0875 13.0983 13.1108L13.1285 13.6099C13.4701 13.5892 13.8313 13.6197 14.1973 13.6526L14.242 13.1546ZM14.3504 13.1631C14.3128 13.1602 14.2763 13.1575 14.2402 13.1545L14.1991 13.6528C14.237 13.6559 14.2749 13.6588 14.3122 13.6617L14.3504 13.1631ZM14.3484 13.163L14.3483 13.163L14.3143 13.6618L14.3144 13.6618L14.3484 13.163ZM14.4477 13.1707L14.3508 13.1632L14.3119 13.6616L14.4088 13.6692L14.4477 13.1707ZM17.6813 16.4082L14.6075 13.2457L14.249 13.5942L17.3227 16.7567L17.6813 16.4082ZM17.8882 16.9422C17.8882 16.8096 17.86 16.5869 17.6788 16.4056L17.3252 16.7592C17.3724 16.8064 17.3882 16.8717 17.3882 16.9422H17.8882ZM17.5808 17.6639C17.7725 17.4677 17.8882 17.2065 17.8882 16.9422H17.3882C17.3882 17.0623 17.3336 17.2014 17.2231 17.3145L17.5808 17.6639ZM17.6391 17.5682L17.6398 17.5661L17.164 17.4124L17.1633 17.4146L17.6391 17.5682ZM19.3687 14.6255L17.7141 16.3639L18.0763 16.7086L19.7309 14.9703L19.3687 14.6255ZM19.6218 14.5585L19.6196 14.5578L19.48 15.038L19.4822 15.0386L19.6218 14.5585ZM20.3827 12.11C20.3827 13.0447 20.0244 13.942 19.3712 14.6258L19.7328 14.9712C20.4746 14.1946 20.8827 13.1736 20.8827 12.11H20.3827ZM19.4049 9.63208C20.0352 10.2948 20.3827 11.1736 20.3827 12.11H20.8827C20.8827 11.0483 20.4879 10.0453 19.7672 9.28751L19.4049 9.63208ZM16.6355 8.64317C17.6437 8.50533 18.6813 8.87351 19.4052 9.63236L19.767 9.28723C18.9354 8.41553 17.7393 7.9876 16.5678 8.14778L16.6355 8.64317ZM13.7731 10.3591C14.0538 10.0698 14.4737 9.67934 14.9753 9.34104C15.4787 9.00153 16.0503 8.72424 16.6359 8.64311L16.5673 8.14784C15.8778 8.24335 15.2335 8.56387 14.6958 8.92649C14.1563 9.29031 13.7098 9.70629 13.4143 10.0109L13.7731 10.3591ZM10.3577 13.8668L13.7728 10.3594L13.4146 10.0106L9.99949 13.518L10.3577 13.8668ZM10.3743 13.6765C10.3989 13.7145 10.4029 13.7531 10.3994 13.7812C10.396 13.8092 10.3836 13.8403 10.3574 13.8672L9.99981 13.5177C9.89464 13.6253 9.86239 13.8058 9.95453 13.9482L10.3743 13.6765ZM10.9669 14.081C10.7313 14.0452 10.52 13.9071 10.3758 13.6788L9.95307 13.9459C10.1693 14.2881 10.503 14.5162 10.8917 14.5753L10.9669 14.081ZM11.6376 13.8773C11.4475 14.0447 11.2032 14.117 10.9669 14.081L10.8917 14.5753C11.2798 14.6344 11.6713 14.5138 11.968 14.2526L11.6376 13.8773ZM12.5552 12.9916C12.1957 13.3553 11.8437 13.6938 11.6366 13.8782L11.969 14.2517C12.1876 14.0571 12.548 13.7102 12.9108 13.3431L12.5552 12.9916ZM13.0773 12.7524C12.8773 12.7631 12.6936 12.8532 12.5562 12.9906L12.9098 13.3441C12.9683 13.2856 13.0386 13.2552 13.104 13.2517L13.0773 12.7524ZM14.2544 12.7934C13.8864 12.7614 13.4831 12.7259 13.0744 12.7525L13.1069 13.2515C13.4715 13.2278 13.8372 13.259 14.2112 13.2915L14.2544 12.7934ZM14.2709 12.7948L14.2544 12.7934L14.2112 13.2915L14.2277 13.2929L14.2709 12.7948ZM15.5146 12.8212C15.1175 12.8687 14.722 12.835 14.2715 12.7949L14.2272 13.2929C14.6693 13.3323 15.1167 13.3723 15.574 13.3177L15.5146 12.8212ZM17.0861 12.0356C16.5928 12.4159 16.1059 12.7519 15.5152 12.8211L15.5734 13.3177C16.3152 13.2308 16.8998 12.8105 17.3914 12.4316L17.0861 12.0356ZM17.6901 12.1215C17.5494 11.9276 17.2744 11.8866 17.0836 12.0375L17.3938 12.4296C17.3591 12.4571 17.3098 12.4487 17.2854 12.4152L17.6901 12.1215ZM17.6033 12.721C17.7903 12.5783 17.8275 12.3092 17.6895 12.1206L17.2861 12.416C17.274 12.3996 17.2713 12.3816 17.2733 12.3676C17.2753 12.3535 17.2831 12.3365 17.2999 12.3237L17.6033 12.721ZM15.6133 13.6789C16.4413 13.5814 17.0709 13.1321 17.6044 12.7202L17.2988 12.3245C16.7681 12.7343 16.2341 13.1024 15.5549 13.1823L15.6133 13.6789ZM14.9507 13.7039C15.1648 13.7098 15.389 13.7063 15.6145 13.6787L15.5537 13.1824C15.3619 13.2059 15.1647 13.2096 14.9644 13.2041L14.9507 13.7039ZM17.9324 16.1533L15.1368 13.2797L14.7784 13.6283L17.5741 16.502L17.9324 16.1533ZM18.1188 16.4244C18.0725 16.3318 18.014 16.2398 17.9352 16.1562L17.5713 16.4991C17.6088 16.5389 17.6412 16.5874 17.6716 16.648L18.1188 16.4244Z" fill="black"/>
</svg>
