<?xml version="1.0" encoding="UTF-8"?>
<svg width="29px" height="29px" viewBox="0 0 29 29" version="1.1" xmlns="http://www.w3.org/2000/svg" xmlns:xlink="http://www.w3.org/1999/xlink">
    <!-- Generator: Sketch 53.2 (72643) - https://sketchapp.com -->
    <title>Untitled 4</title>
    <desc>Created with Sketch.</desc>
    <g id="Page-1" stroke="none" stroke-width="1" fill="none" fill-rule="evenodd">
        <g id="Group-6">
            <circle id="Oval-Copy-2" fill="#000000" cx="14.5" cy="14.5" r="14.5"></circle>
            <path d="M15,8 C13.0983333,8 12.8609167,8.00875 12.11425,8.042 C11.36875,8.077 10.86125,8.19425 10.415,8.3675 C9.95475,8.546 9.56391667,8.78575 9.17483333,9.17483333 C8.78575,9.56391667 8.54541667,9.95416667 8.3675,10.415 C8.19425,10.86125 8.07641667,11.36875 8.042,12.11425 C8.007,12.8609167 8,13.0983333 8,15 C8,16.9016667 8.00875,17.1390833 8.042,17.88575 C8.077,18.6306667 8.19425,19.13875 8.3675,19.585 C8.546,20.0446667 8.78575,20.4360833 9.17483333,20.8251667 C9.56391667,21.2136667 9.95416667,21.4545833 10.415,21.6325 C10.8618333,21.8051667 11.3693333,21.9235833 12.11425,21.958 C12.8609167,21.993 13.0983333,22 15,22 C16.9016667,22 17.1390833,21.99125 17.88575,21.958 C18.6306667,21.923 19.13875,21.8051667 19.585,21.6325 C20.0446667,21.454 20.4360833,21.2136667 20.8251667,20.8251667 C21.2136667,20.4360833 21.4545833,20.0464167 21.6325,19.585 C21.8051667,19.13875 21.9235833,18.6306667 21.958,17.88575 C21.993,17.1390833 22,16.9016667 22,15 C22,13.0983333 21.99125,12.8609167 21.958,12.11425 C21.923,11.3693333 21.8051667,10.8606667 21.6325,10.415 C21.454,9.95475 21.2136667,9.56391667 20.8251667,9.17483333 C20.4360833,8.78575 20.0464167,8.54541667 19.585,8.3675 C19.13875,8.19425 18.6306667,8.07641667 17.88575,8.042 C17.1390833,8.007 16.9016667,8 15,8 Z M15,9.26 C16.8684167,9.26 17.09125,9.26933333 17.8291667,9.30141667 C18.5116667,9.3335 18.8820833,9.44666667 19.12825,9.5435 C19.4560833,9.67008333 19.68825,9.82175 19.9344167,10.0661667 C20.1788333,10.3111667 20.3305,10.5439167 20.4570833,10.87175 C20.55275,11.1179167 20.6670833,11.4883333 20.698,12.1708333 C20.73125,12.9093333 20.7388333,13.131 20.7388333,15 C20.7388333,16.869 20.7300833,17.09125 20.6956667,17.8291667 C20.6600833,18.5116667 20.5463333,18.8820833 20.4500833,19.12825 C20.3194167,19.4560833 20.1706667,19.68825 19.9256667,19.9344167 C19.68125,20.1788333 19.445,20.3305 19.1206667,20.4570833 C18.8756667,20.55275 18.4994167,20.6670833 17.8169167,20.698 C17.07375,20.73125 16.855,20.7388333 14.9825,20.7388333 C13.1094167,20.7388333 12.8906667,20.7300833 12.1480833,20.6956667 C11.465,20.6600833 11.08875,20.5463333 10.84375,20.4500833 C10.5118333,20.3194167 10.28375,20.1706667 10.0393333,19.9256667 C9.79375,19.68125 9.63683333,19.445 9.51433333,19.1206667 C9.41808333,18.8756667 9.30491667,18.4994167 9.26933333,17.8169167 C9.24308333,17.0819167 9.23375,16.855 9.23375,14.99125 C9.23375,13.1269167 9.24308333,12.8994167 9.26933333,12.1556667 C9.30491667,11.4731667 9.41808333,11.0975 9.51433333,10.8525 C9.63683333,10.52 9.79375,10.2925 10.0393333,10.0469167 C10.28375,9.8025 10.5118333,9.645 10.84375,9.52308333 C11.08875,9.42625 11.4568333,9.3125 12.1393333,9.2775 C12.8830833,9.25125 13.1018333,9.2425 14.97375,9.2425 L15,9.26 L15,9.26 Z M15,11.4055 C13.01375,11.4055 11.4055,13.0155 11.4055,15 C11.4055,16.98625 13.0155,18.5945 15,18.5945 C16.98625,18.5945 18.5945,16.9845 18.5945,15 C18.5945,13.01375 16.9845,11.4055 15,11.4055 Z M15,17.3333333 C13.7108333,17.3333333 12.6666667,16.2891667 12.6666667,15 C12.6666667,13.7108333 13.7108333,12.6666667 15,12.6666667 C16.2891667,12.6666667 17.3333333,13.7108333 17.3333333,15 C17.3333333,16.2891667 16.2891667,17.3333333 15,17.3333333 Z M19.5768333,11.26375 C19.5768333,11.7275 19.2,12.10375 18.7368333,12.10375 C18.2730833,12.10375 17.8968333,11.7269167 17.8968333,11.26375 C17.8968333,10.8005833 18.2736667,10.4243333 18.7368333,10.4243333 C19.1994167,10.42375 19.5768333,10.8005833 19.5768333,11.26375 Z" id="Shape" fill="#FFFFFF" fill-rule="nonzero"></path>
        </g>
        <g id="instagram" transform="translate(8.000000, 7.000000)"></g>
    </g>
</svg>