<?xml version="1.0" encoding="UTF-8"?>
<svg width="29px" height="29px" viewBox="0 0 29 29" version="1.1" xmlns="http://www.w3.org/2000/svg" xmlns:xlink="http://www.w3.org/1999/xlink">
    <!-- Generator: Sketch 53.2 (72643) - https://sketchapp.com -->
    <title>Untitled 6</title>
    <desc>Created with Sketch.</desc>
    <defs>
        <polygon id="path-1" points="14.2630719 11.5016125 14.2630719 1.49559636e-15 0 0 0 11.5016125 14.2630719 11.5016125"></polygon>
    </defs>
    <g id="Page-1" stroke="none" stroke-width="1" fill="none" fill-rule="evenodd">
        <g id="Icon/twitter">
            <circle id="Oval-Copy-3" fill="#000000" cx="14.5" cy="14.5" r="14.5"></circle>
            <g id="icn_Twitter" stroke-width="1" transform="translate(8.156250, 9.062500)">
                <mask id="mask-2" fill="white">
                    <use xlink:href="#path-1"></use>
                </mask>
                <g id="Clip-2"></g>
                <path d="M12.7920626,1.84859852 C13.4055831,1.48354364 13.876991,0.905575754 14.0988935,0.215908775 C13.5244055,0.553787819 12.8878106,0.80008217 12.2106739,0.93232362 C11.6674549,0.358635389 10.8941388,0 10.0395232,0 C8.39649608,0 7.06378739,1.32198653 7.06378739,2.9518945 C7.06378739,3.18299606 7.09031217,3.40810611 7.1414209,3.62465683 C4.66900906,3.50118868 2.47672482,2.32556647 1.00988266,0.540306895 C0.754339,0.975976138 0.60661967,1.48311568 0.60661967,2.02470647 C0.60661967,3.0484008 1.13215545,3.95183673 1.93091807,4.48165846 C1.44312081,4.46667965 0.984004819,4.33315431 0.582682669,4.11210994 L0.582682669,4.14934297 C0.582682669,5.5791769 1.60830768,6.77213173 2.96926635,7.04389005 C2.71911391,7.11129467 2.45688514,7.14767177 2.18559913,7.14767177 C1.99367183,7.14767177 1.80713574,7.12905525 1.62534392,7.09374807 C2.00380731,8.26701647 3.10318416,9.1201664 4.4046238,9.14434648 C3.3861152,9.93522738 2.10429959,10.4077017 0.709915376,10.4077017 C0.470114071,10.4077017 0.233116197,10.3933648 0,10.3670449 C1.31718199,11.2043601 2.88106605,11.6926692 4.56032213,11.6926692 C10.0319755,11.6926692 13.0243162,7.19517598 13.0243162,3.29448117 C13.0243162,3.16651938 13.0215128,3.03855759 13.0161216,2.91252164 C13.5968634,2.49675281 14.10105,1.97634633 14.5,1.38361362 C13.9664852,1.6194228 13.3932911,1.77755619 12.7920626,1.84859852 Z" id="Fill-1" fill="#FFFFFF" mask="url(#mask-2)"></path>
            </g>
        </g>
    </g>
</svg>